<svg width="107" height="32" viewBox="0 0 107 32" fill="none" xmlns="http://www.w3.org/2000/svg">
<path d="M0.94 31V0.759999H6.064L20.092 22.075V0.759999H25.216V31H20.092L6.064 9.685V31H0.94ZM41.3975 31.63C39.1015 31.63 37.0855 31.133 35.3495 30.139C33.6135 29.145 32.2555 27.766 31.2755 26.002C30.3095 24.238 29.8265 22.208 29.8265 19.912C29.8265 17.434 30.3025 15.285 31.2545 13.465C32.2065 11.631 33.5295 10.21 35.2235 9.202C36.9175 8.194 38.8775 7.69 41.1035 7.69C43.4555 7.69 45.4505 8.243 47.0885 9.349C48.7405 10.441 49.9655 11.988 50.7635 13.99C51.5615 15.992 51.8625 18.351 51.6665 21.067H46.6475V19.219C46.6335 16.755 46.1995 14.956 45.3455 13.822C44.4915 12.688 43.1475 12.121 41.3135 12.121C39.2415 12.121 37.7015 12.765 36.6935 14.053C35.6855 15.327 35.1815 17.196 35.1815 19.66C35.1815 21.956 35.6855 23.734 36.6935 24.994C37.7015 26.254 39.1715 26.884 41.1035 26.884C42.3495 26.884 43.4205 26.611 44.3165 26.065C45.2265 25.505 45.9265 24.7 46.4165 23.65L51.4145 25.162C50.5465 27.206 49.2025 28.795 47.3825 29.929C45.5765 31.063 43.5815 31.63 41.3975 31.63ZM33.5855 21.067V17.245H49.1885V21.067H33.5855ZM60.3618 31L53.4318 8.278L58.3878 8.32L62.8188 22.873L67.3128 8.32H71.5758L76.0488 22.873L80.5008 8.32H85.4568L78.5268 31H74.5788L69.4338 15.397L64.3098 31H60.3618ZM97.1833 31.63C94.3833 31.63 92.1083 31 90.3583 29.74C88.6083 28.48 87.5443 26.709 87.1663 24.427L92.3323 23.629C92.5983 24.749 93.1863 25.631 94.0963 26.275C95.0063 26.919 96.1543 27.241 97.5403 27.241C98.7583 27.241 99.6963 27.003 100.354 26.527C101.026 26.037 101.362 25.372 101.362 24.532C101.362 24.014 101.236 23.601 100.984 23.293C100.746 22.971 100.214 22.663 99.3883 22.369C98.5623 22.075 97.2953 21.704 95.5873 21.256C93.6833 20.752 92.1713 20.213 91.0513 19.639C89.9313 19.051 89.1263 18.358 88.6363 17.56C88.1463 16.762 87.9013 15.796 87.9013 14.662C87.9013 13.248 88.2723 12.016 89.0143 10.966C89.7563 9.916 90.7923 9.111 92.1223 8.551C93.4523 7.977 95.0203 7.69 96.8263 7.69C98.5903 7.69 100.151 7.963 101.509 8.509C102.881 9.055 103.987 9.832 104.827 10.84C105.667 11.848 106.185 13.031 106.381 14.389L101.215 15.313C101.089 14.347 100.648 13.584 99.8923 13.024C99.1503 12.464 98.1563 12.149 96.9103 12.079C95.7203 12.009 94.7613 12.191 94.0333 12.625C93.3053 13.045 92.9413 13.64 92.9413 14.41C92.9413 14.844 93.0883 15.215 93.3823 15.523C93.6763 15.831 94.2643 16.139 95.1463 16.447C96.0423 16.755 97.3723 17.133 99.1363 17.581C100.942 18.043 102.384 18.575 103.462 19.177C104.554 19.765 105.338 20.472 105.814 21.298C106.304 22.124 106.549 23.125 106.549 24.301C106.549 26.583 105.716 28.375 104.05 29.677C102.398 30.979 100.109 31.63 97.1833 31.63Z" fill="#111321"/>
</svg>
